<svg version="1.1" id="Layer_1" xmlns="http://www.w3.org/2000/svg" xmlns:xlink="http://www.w3.org/1999/xlink" x="0px" y="0px"
	 width="100%" viewBox="0 0 450 450" enable-background="new 0 0 450 450" xml:space="preserve">
<path fill="#000000" opacity="1.000000" stroke="none" 
	d="
M252.000000,451.000000 
	C168.023178,451.000000 84.546356,451.000000 1.034767,451.000000 
	C1.034767,301.064819 1.034767,151.129639 1.034767,1.097222 
	C150.893494,1.097222 300.787048,1.097222 450.840332,1.097222 
	C450.840332,150.999863 450.840332,300.999908 450.840332,451.000000 
	C384.796265,451.000000 318.648132,451.000000 252.000000,451.000000 
M248.982376,234.525345 
	C250.401566,235.271545 251.832596,235.996155 253.238190,236.767151 
	C276.484314,249.518280 299.752625,262.229248 322.962677,275.045776 
	C340.720276,284.851532 358.431793,294.741913 376.096924,304.713196 
	C379.882904,306.850250 382.728149,306.991425 385.100555,302.788940 
	C389.681488,294.674255 394.527588,286.708771 399.075439,278.576080 
	C401.393524,274.430786 400.223114,271.418213 395.683350,268.914154 
	C381.451691,261.064331 367.211212,253.230270 352.947418,245.439056 
	C347.538300,242.484482 346.219849,238.689682 347.202057,232.304291 
	C347.888916,227.838943 347.835327,223.103271 347.177612,218.625656 
	C346.281403,212.524323 347.254272,207.619690 351.093842,205.542862 
	C365.595215,197.699051 380.107697,189.874847 394.670471,182.145859 
	C400.004059,179.315109 400.638092,177.407242 397.753784,172.337753 
	C393.807617,165.401962 389.945099,158.415909 386.190948,151.374512 
	C383.711548,146.724091 380.500183,145.521637 376.004028,147.963715 
	C369.097717,151.714920 362.240448,155.557175 355.311340,159.265503 
	C334.503876,170.401291 313.682220,181.510727 292.845856,192.592392 
	C275.766815,201.675766 258.647430,210.683289 241.575439,219.779816 
	C238.905212,221.202576 236.392181,222.920349 232.349319,225.392822 
	C238.462112,228.722794 243.405807,231.415894 248.982376,234.525345 
M174.999146,251.504425 
	C190.207245,243.652084 205.415344,235.799744 220.623428,227.947388 
	C220.466660,227.378769 220.309875,226.810150 220.153107,226.241531 
	C214.853195,223.169769 209.598434,220.016724 204.244263,217.042648 
	C191.954819,210.216354 179.585434,203.533813 167.305923,196.689865 
	C147.817474,185.828064 128.388107,174.860275 108.909554,163.980652 
	C98.752968,158.307770 88.592674,152.637848 78.338203,147.145584 
	C73.662079,144.641052 71.639778,145.418274 68.996353,150.036621 
	C64.812904,157.345505 60.536758,164.605743 56.553104,172.022598 
	C54.831196,175.228485 54.891346,178.259735 58.823643,180.380096 
	C72.706039,187.865585 86.580940,195.373886 100.267059,203.208298 
	C103.719482,205.184586 108.098343,206.685776 107.484459,212.682800 
	C106.718925,220.161255 106.797066,227.771835 107.128479,235.298157 
	C107.302406,239.247971 105.501358,241.620834 102.784157,243.547775 
	C100.289757,245.316711 97.444527,246.599808 94.722092,248.036774 
	C82.069435,254.715088 69.488426,261.537323 56.702694,267.951080 
	C52.005520,270.307312 52.147015,273.502808 54.033577,277.145447 
	C58.205013,285.199829 62.716698,293.077209 66.975128,301.087616 
	C69.237198,305.342712 71.968208,306.430908 76.451294,304.125519 
	C86.773254,298.817566 97.060158,293.438721 107.295738,287.966034 
	C129.676697,275.999573 152.016891,263.956757 174.999146,251.504425 
M172.943954,332.483856 
	C173.594803,332.984406 174.177856,333.638855 174.907593,333.960358 
	C179.455032,335.963989 182.383057,338.926331 181.833603,344.373260 
	C181.422363,348.449860 181.143661,352.548828 181.024887,356.644226 
	C180.632980,370.157135 180.287766,383.671967 180.046112,397.188232 
	C179.983902,400.667999 181.068695,403.163116 185.480118,403.064575 
	C195.137299,402.848907 204.805038,402.874756 214.463394,403.062744 
	C217.998337,403.131531 219.032761,401.860138 219.073532,398.420746 
	C219.179459,389.485718 219.810715,380.557831 219.967865,371.622437 
	C220.385742,347.864624 220.635818,324.103943 221.007278,300.345276 
	C221.295395,281.916107 221.671463,263.488342 221.993454,245.059708 
	C222.039124,242.446625 221.999786,239.832077 221.999786,236.436661 
	C219.235092,237.204437 216.970428,237.322495 215.292465,238.375473 
	C187.446243,255.849899 159.713150,273.504578 131.868408,290.981323 
	C117.324097,300.110077 102.633545,309.006897 87.964294,317.934937 
	C83.011734,320.949188 81.501091,324.325012 83.886765,328.742706 
	C88.446510,337.186127 93.176147,345.538300 97.880554,353.902893 
	C99.638069,357.027771 102.442566,357.840912 105.346535,356.001099 
	C119.618538,346.959076 133.680801,337.582062 148.050888,328.701569 
	C151.458099,326.595947 154.902969,322.736694 159.884644,325.463684 
	C164.002136,327.717590 168.162140,329.893860 172.943954,332.483856 
M191.442444,48.999161 
	C190.442505,48.999710 189.442139,49.020050 188.442719,48.997650 
	C181.000366,48.830868 180.901886,48.829788 181.021286,56.262695 
	C181.291031,73.054016 181.537018,89.847855 182.079926,106.631378 
	C182.246185,111.771370 179.946335,114.761932 175.763504,117.057144 
	C171.187851,119.567902 166.588226,122.087227 162.276505,125.011864 
	C158.089020,127.852242 154.256119,127.154297 150.433578,124.733612 
	C143.599655,120.405960 136.887939,115.885559 130.060226,111.547890 
	C121.872833,106.346405 113.683807,101.140060 105.342720,96.193420 
	C103.377106,95.027718 100.668388,93.060074 98.695068,96.657600 
	C93.481415,106.162544 88.149826,115.604973 83.099678,125.195755 
	C81.952713,127.373955 82.271500,129.659348 85.100487,131.133545 
	C88.396698,132.851212 91.413635,135.099991 94.577911,137.076431 
	C111.121422,147.409653 127.676971,157.723587 144.221100,168.055801 
	C161.424286,178.799591 178.633133,189.534424 195.811874,200.317200 
	C204.306122,205.648895 212.738281,211.079529 221.198532,216.465393 
	C221.830109,216.165039 222.461670,215.864670 223.093246,215.564316 
	C222.729034,210.107452 222.188416,204.655548 222.034256,199.192764 
	C221.603622,183.931305 221.244141,168.666656 221.018600,153.400864 
	C220.615784,126.137947 220.356689,98.872925 219.960403,71.609894 
	C219.920258,68.847778 219.184769,66.100235 219.070999,63.333630 
	C218.911896,59.464748 219.323471,55.550713 218.879593,51.726955 
	C218.723297,50.380302 216.767120,48.180626 215.632736,48.180622 
	C207.871017,48.180595 200.109283,48.662140 191.442444,48.999161 
M362.575226,108.939392 
	C360.638824,105.365211 358.784637,101.743172 356.740387,98.231766 
	C355.064972,95.353889 352.783478,93.893852 349.425812,95.881393 
	C346.468170,97.632141 343.396149,99.196587 340.491241,101.028214 
	C327.463226,109.242638 314.532227,117.613152 301.411926,125.676277 
	C299.582733,126.800415 296.444885,127.520592 294.690002,126.721321 
	C289.094299,124.172714 283.871552,120.808052 278.492218,117.780769 
	C274.658386,115.623253 272.419128,112.928139 272.882935,107.966240 
	C273.641876,99.846794 273.803070,91.661247 273.960999,83.498634 
	C274.128632,74.835655 273.998962,66.166908 273.998474,57.500683 
	C273.997955,48.958286 273.632538,48.609024 265.269257,48.988956 
	C264.272949,49.034218 263.270447,48.977726 262.272064,48.937305 
	C254.669174,48.629459 247.067719,48.198174 239.462738,48.124863 
	C238.315659,48.113808 236.323410,49.618927 236.143723,50.666534 
	C235.450333,54.709126 235.143814,58.845612 235.035446,62.956127 
	C234.619629,78.726051 234.319275,94.499130 234.008133,110.271667 
	C233.654266,128.209900 233.288452,146.148087 233.020386,164.087692 
	C232.888428,172.918320 233.131378,181.756424 232.898361,190.583054 
	C232.685486,198.647095 232.059586,206.700211 231.532700,216.264938 
	C235.196808,214.746170 237.692688,214.109726 239.755798,212.794434 
	C258.842529,200.626007 277.729797,188.140930 296.920319,176.140091 
	C320.254333,161.548141 343.832123,147.346176 367.288452,132.949432 
	C371.713531,130.233444 372.805969,127.124657 370.684998,123.199760 
	C368.204071,118.608788 365.573853,114.098495 362.575226,108.939392 
M294.645782,324.923096 
	C296.724060,325.078430 299.227997,324.533203 300.814789,325.497375 
	C316.853912,335.243073 332.727478,345.260742 348.688354,355.136078 
	C351.591949,356.932556 354.175812,357.437012 356.271271,353.506226 
	C360.574493,345.433899 365.356598,337.618225 369.747375,329.590668 
	C372.766174,324.071411 372.341858,322.409973 366.823456,318.978668 
	C346.569519,306.384888 326.142853,294.067078 305.958649,281.363403 
	C284.404236,267.797333 263.068970,253.883362 241.586868,240.201614 
	C238.796066,238.424194 235.700119,237.125900 232.002563,235.223389 
	C232.002563,237.835953 231.955658,239.461884 232.010284,241.084427 
	C232.327835,250.515457 232.795990,259.943237 232.976868,269.376678 
	C233.388229,290.831879 233.649796,312.289917 233.996094,333.746399 
	C234.314957,353.502747 234.639572,373.259094 235.038498,393.013885 
	C235.080917,395.113617 235.898468,397.202972 235.898056,399.297058 
	C235.897400,402.590790 237.720947,403.048889 240.413940,403.026337 
	C249.739639,402.948212 259.067596,402.909241 268.392181,403.037811 
	C272.417633,403.093353 274.216644,401.450256 274.013367,397.410004 
	C273.622803,389.647797 273.160187,381.883331 273.039307,374.114929 
	C272.873474,363.459290 273.127533,352.796753 272.927368,342.142303 
	C272.857422,338.419281 274.467590,336.459869 277.568573,334.830750 
	C283.169830,331.888092 288.595642,328.611511 294.645782,324.923096 
z"/>
<path fill="#711FD8" opacity="1.000000" stroke="none" 
	d="
M248.665939,234.317169 
	C243.405807,231.415894 238.462112,228.722794 232.349319,225.392822 
	C236.392181,222.920349 238.905212,221.202576 241.575439,219.779816 
	C258.647430,210.683289 275.766815,201.675766 292.845856,192.592392 
	C313.682220,181.510727 334.503876,170.401291 355.311340,159.265503 
	C362.240448,155.557175 369.097717,151.714920 376.004028,147.963715 
	C380.500183,145.521637 383.711548,146.724091 386.190948,151.374512 
	C389.945099,158.415909 393.807617,165.401962 397.753784,172.337753 
	C400.638092,177.407242 400.004059,179.315109 394.670471,182.145859 
	C380.107697,189.874847 365.595215,197.699051 351.093842,205.542862 
	C347.254272,207.619690 346.281403,212.524323 347.177612,218.625656 
	C347.835327,223.103271 347.888916,227.838943 347.202057,232.304291 
	C346.219849,238.689682 347.538300,242.484482 352.947418,245.439056 
	C367.211212,253.230270 381.451691,261.064331 395.683350,268.914154 
	C400.223114,271.418213 401.393524,274.430786 399.075439,278.576080 
	C394.527588,286.708771 389.681488,294.674255 385.100555,302.788940 
	C382.728149,306.991425 379.882904,306.850250 376.096924,304.713196 
	C358.431793,294.741913 340.720276,284.851532 322.962677,275.045776 
	C299.752625,262.229248 276.484314,249.518280 253.238190,236.767151 
	C251.832596,235.996155 250.401566,235.271545 248.665939,234.317169 
z"/>
<path fill="#F0C73A" opacity="1.000000" stroke="none" 
	d="
M174.686432,251.724777 
	C152.016891,263.956757 129.676697,275.999573 107.295738,287.966034 
	C97.060158,293.438721 86.773254,298.817566 76.451294,304.125519 
	C71.968208,306.430908 69.237198,305.342712 66.975128,301.087616 
	C62.716698,293.077209 58.205013,285.199829 54.033577,277.145447 
	C52.147015,273.502808 52.005520,270.307312 56.702694,267.951080 
	C69.488426,261.537323 82.069435,254.715088 94.722092,248.036774 
	C97.444527,246.599808 100.289757,245.316711 102.784157,243.547775 
	C105.501358,241.620834 107.302406,239.247971 107.128479,235.298157 
	C106.797066,227.771835 106.718925,220.161255 107.484459,212.682800 
	C108.098343,206.685776 103.719482,205.184586 100.267059,203.208298 
	C86.580940,195.373886 72.706039,187.865585 58.823643,180.380096 
	C54.891346,178.259735 54.831196,175.228485 56.553104,172.022598 
	C60.536758,164.605743 64.812904,157.345505 68.996353,150.036621 
	C71.639778,145.418274 73.662079,144.641052 78.338203,147.145584 
	C88.592674,152.637848 98.752968,158.307770 108.909554,163.980652 
	C128.388107,174.860275 147.817474,185.828064 167.305923,196.689865 
	C179.585434,203.533813 191.954819,210.216354 204.244263,217.042648 
	C209.598434,220.016724 214.853195,223.169769 220.153107,226.241531 
	C220.309875,226.810150 220.466660,227.378769 220.623428,227.947388 
	C205.415344,235.799744 190.207245,243.652084 174.686432,251.724777 
z"/>
<path fill="#4BBF79" opacity="1.000000" stroke="none" 
	d="
M172.623627,332.294189 
	C168.162140,329.893860 164.002136,327.717590 159.884644,325.463684 
	C154.902969,322.736694 151.458099,326.595947 148.050888,328.701569 
	C133.680801,337.582062 119.618538,346.959076 105.346535,356.001099 
	C102.442566,357.840912 99.638069,357.027771 97.880554,353.902893 
	C93.176147,345.538300 88.446510,337.186127 83.886765,328.742706 
	C81.501091,324.325012 83.011734,320.949188 87.964294,317.934937 
	C102.633545,309.006897 117.324097,300.110077 131.868408,290.981323 
	C159.713150,273.504578 187.446243,255.849899 215.292465,238.375473 
	C216.970428,237.322495 219.235092,237.204437 221.999786,236.436661 
	C221.999786,239.832077 222.039124,242.446625 221.993454,245.059708 
	C221.671463,263.488342 221.295395,281.916107 221.007278,300.345276 
	C220.635818,324.103943 220.385742,347.864624 219.967865,371.622437 
	C219.810715,380.557831 219.179459,389.485718 219.073532,398.420746 
	C219.032761,401.860138 217.998337,403.131531 214.463394,403.062744 
	C204.805038,402.874756 195.137299,402.848907 185.480118,403.064575 
	C181.068695,403.163116 179.983902,400.667999 180.046112,397.188232 
	C180.287766,383.671967 180.632980,370.157135 181.024887,356.644226 
	C181.143661,352.548828 181.422363,348.449860 181.833603,344.373260 
	C182.383057,338.926331 179.455032,335.963989 174.907593,333.960358 
	C174.177856,333.638855 173.594803,332.984406 172.623627,332.294189 
z"/>
<path fill="#EE923F" opacity="1.000000" stroke="none" 
	d="
M191.895004,48.993820 
	C200.109283,48.662140 207.871017,48.180595 215.632736,48.180622 
	C216.767120,48.180626 218.723297,50.380302 218.879593,51.726955 
	C219.323471,55.550713 218.911896,59.464748 219.070999,63.333630 
	C219.184769,66.100235 219.920258,68.847778 219.960403,71.609894 
	C220.356689,98.872925 220.615784,126.137947 221.018600,153.400864 
	C221.244141,168.666656 221.603622,183.931305 222.034256,199.192764 
	C222.188416,204.655548 222.729034,210.107452 223.093246,215.564316 
	C222.461670,215.864670 221.830109,216.165039 221.198532,216.465393 
	C212.738281,211.079529 204.306122,205.648895 195.811874,200.317200 
	C178.633133,189.534424 161.424286,178.799591 144.221100,168.055801 
	C127.676971,157.723587 111.121422,147.409653 94.577911,137.076431 
	C91.413635,135.099991 88.396698,132.851212 85.100487,131.133545 
	C82.271500,129.659348 81.952713,127.373955 83.099678,125.195755 
	C88.149826,115.604973 93.481415,106.162544 98.695068,96.657600 
	C100.668388,93.060074 103.377106,95.027718 105.342720,96.193420 
	C113.683807,101.140060 121.872833,106.346405 130.060226,111.547890 
	C136.887939,115.885559 143.599655,120.405960 150.433578,124.733612 
	C154.256119,127.154297 158.089020,127.852242 162.276505,125.011864 
	C166.588226,122.087227 171.187851,119.567902 175.763504,117.057144 
	C179.946335,114.761932 182.246185,111.771370 182.079926,106.631378 
	C181.537018,89.847855 181.291031,73.054016 181.021286,56.262695 
	C180.901886,48.829788 181.000366,48.830868 188.442719,48.997650 
	C189.442139,49.020050 190.442505,48.999710 191.895004,48.993820 
z"/>
<path fill="#CC4140" opacity="1.000000" stroke="none" 
	d="
M362.791809,109.246300 
	C365.573853,114.098495 368.204071,118.608788 370.684998,123.199760 
	C372.805969,127.124657 371.713531,130.233444 367.288452,132.949432 
	C343.832123,147.346176 320.254333,161.548141 296.920319,176.140091 
	C277.729797,188.140930 258.842529,200.626007 239.755798,212.794434 
	C237.692688,214.109726 235.196808,214.746170 231.532700,216.264938 
	C232.059586,206.700211 232.685486,198.647095 232.898361,190.583054 
	C233.131378,181.756424 232.888428,172.918320 233.020386,164.087692 
	C233.288452,146.148087 233.654266,128.209900 234.008133,110.271667 
	C234.319275,94.499130 234.619629,78.726051 235.035446,62.956127 
	C235.143814,58.845612 235.450333,54.709126 236.143723,50.666534 
	C236.323410,49.618927 238.315659,48.113808 239.462738,48.124863 
	C247.067719,48.198174 254.669174,48.629459 262.272064,48.937305 
	C263.270447,48.977726 264.272949,49.034218 265.269257,48.988956 
	C273.632538,48.609024 273.997955,48.958286 273.998474,57.500683 
	C273.998962,66.166908 274.128632,74.835655 273.960999,83.498634 
	C273.803070,91.661247 273.641876,99.846794 272.882935,107.966240 
	C272.419128,112.928139 274.658386,115.623253 278.492218,117.780769 
	C283.871552,120.808052 289.094299,124.172714 294.690002,126.721321 
	C296.444885,127.520592 299.582733,126.800415 301.411926,125.676277 
	C314.532227,117.613152 327.463226,109.242638 340.491241,101.028214 
	C343.396149,99.196587 346.468170,97.632141 349.425812,95.881393 
	C352.783478,93.893852 355.064972,95.353889 356.740387,98.231766 
	C358.784637,101.743172 360.638824,105.365211 362.791809,109.246300 
z"/>
<path fill="#0695B8" opacity="1.000000" stroke="none" 
	d="
M294.370270,325.198730 
	C288.595642,328.611511 283.169830,331.888092 277.568573,334.830750 
	C274.467590,336.459869 272.857422,338.419281 272.927368,342.142303 
	C273.127533,352.796753 272.873474,363.459290 273.039307,374.114929 
	C273.160187,381.883331 273.622803,389.647797 274.013367,397.410004 
	C274.216644,401.450256 272.417633,403.093353 268.392181,403.037811 
	C259.067596,402.909241 249.739639,402.948212 240.413940,403.026337 
	C237.720947,403.048889 235.897400,402.590790 235.898056,399.297058 
	C235.898468,397.202972 235.080917,395.113617 235.038498,393.013885 
	C234.639572,373.259094 234.314957,353.502747 233.996094,333.746399 
	C233.649796,312.289917 233.388229,290.831879 232.976868,269.376678 
	C232.795990,259.943237 232.327835,250.515457 232.010284,241.084427 
	C231.955658,239.461884 232.002563,237.835953 232.002563,235.223389 
	C235.700119,237.125900 238.796066,238.424194 241.586868,240.201614 
	C263.068970,253.883362 284.404236,267.797333 305.958649,281.363403 
	C326.142853,294.067078 346.569519,306.384888 366.823456,318.978668 
	C372.341858,322.409973 372.766174,324.071411 369.747375,329.590668 
	C365.356598,337.618225 360.574493,345.433899 356.271271,353.506226 
	C354.175812,357.437012 351.591949,356.932556 348.688354,355.136078 
	C332.727478,345.260742 316.853912,335.243073 300.814789,325.497375 
	C299.227997,324.533203 296.724060,325.078430 294.370270,325.198730 
z"/>
</svg>